HIERARCHY
ROOT Hips
{
	OFFSET	0.00	0.00	0.00
	CHANNELS 6 Xposition Yposition Zposition Zrotation Xrotation Yrotation
	JOINT LeftUpLeg
	{
		OFFSET	 0.126116	-0.014019	-0.065224
		CHANNELS 3 Zrotation Xrotation Yrotation
		JOINT LeftLeg
		{
			OFFSET	 0.000000	 0.000000	 0.569914
			CHANNELS 3 Zrotation Xrotation Yrotation
			JOINT LeftFoot
			{
				OFFSET	 0.000000	 0.000000	 0.544423
				CHANNELS 3 Zrotation Xrotation Yrotation
				JOINT LeftToeBase
				{
					OFFSET	 0.000000	 0.000000	 0.207117
					CHANNELS 3 Zrotation Xrotation Yrotation
					End Site
					{
						OFFSET	 0.000000	 0.000000	 0.207117
					}
				}
			}
		}
	}
	JOINT RightUpLeg
	{
		OFFSET	-0.124023	-0.008373	-0.065224
		CHANNELS 3 Zrotation Xrotation Yrotation
		JOINT RightLeg
		{
			OFFSET	 0.000000	 0.000000	 0.570047
			CHANNELS 3 Zrotation Xrotation Yrotation
			JOINT RightFoot
			{
				OFFSET	 0.000000	 0.000000	 0.544354
				CHANNELS 3 Zrotation Xrotation Yrotation
				JOINT RightToeBase
				{
					OFFSET	 0.000000	 0.000000	 0.207540
					CHANNELS 3 Zrotation Xrotation Yrotation
					End Site
					{
						OFFSET	 0.000000	 0.000000	 0.207540
					}
				}
			}
		}
	}
	JOINT Spine
	{
		OFFSET	 0.000184	-0.007763	 0.117403
		CHANNELS 3 Zrotation Xrotation Yrotation
		JOINT Spine1
		{
			OFFSET	 0.000000	 0.000000	 0.137269
			CHANNELS 3 Zrotation Xrotation Yrotation
			JOINT Spine2
			{
				OFFSET	 0.000000	 0.000000	 0.156879
				CHANNELS 3 Zrotation Xrotation Yrotation
				JOINT LeftShoulder
				{
					OFFSET	 0.080501	-0.002496	 0.160144
					CHANNELS 3 Zrotation Xrotation Yrotation
					JOINT LeftArm
					{
						OFFSET	 0.000000	 0.000000	 0.164363
						CHANNELS 3 Zrotation Xrotation Yrotation
						JOINT LeftForeArm
						{
							OFFSET	 0.000000	 0.000000	 0.364576
							CHANNELS 3 Zrotation Xrotation Yrotation
							JOINT LeftHand
							{
								OFFSET	 0.000000	 0.000000	 0.360812
								CHANNELS 3 Zrotation Xrotation Yrotation
								JOINT LeftHandIndex1
								{
									OFFSET	 0.000000	 0.000000	 0.086006
									CHANNELS 3 Zrotation Xrotation Yrotation
									JOINT LeftHandIndex2
									{
										OFFSET	 0.000000	 0.000000	 0.047236
										CHANNELS 3 Zrotation Xrotation Yrotation
										JOINT LeftHandIndex3
										{
											OFFSET	-0.004284	-0.000551	 0.038166
											CHANNELS 3 Zrotation Xrotation Yrotation
											End Site
											{
												OFFSET	-0.004284	-0.000551	 0.038166
											}
										}
									}
								}
							}
						}
					}
				}
				JOINT Neck
				{
					OFFSET	 0.000000	 0.000000	 0.176489
					CHANNELS 3 Zrotation Xrotation Yrotation
					JOINT Head
					{
						OFFSET	 0.000000	-0.001747	 0.077940
						CHANNELS 3 Zrotation Xrotation Yrotation
						End Site
						{
							OFFSET	 0.000000	-0.001747	 0.077940
						}
					}
				}
				JOINT RightShoulder
				{
					OFFSET	-0.080363	 0.000306	 0.159706
					CHANNELS 3 Zrotation Xrotation Yrotation
					JOINT RightArm
					{
						OFFSET	 0.000000	 0.000000	 0.164196
						CHANNELS 3 Zrotation Xrotation Yrotation
						JOINT RightForeArm
						{
							OFFSET	 0.000000	 0.000000	 0.365611
							CHANNELS 3 Zrotation Xrotation Yrotation
							JOINT RightHand
							{
								OFFSET	 0.000000	 0.000000	 0.360648
								CHANNELS 3 Zrotation Xrotation Yrotation
								JOINT RightHandIndex1
								{
									OFFSET	 0.000000	 0.000000	 0.069977
									CHANNELS 3 Zrotation Xrotation Yrotation
									JOINT RightHandIndex2
									{
										OFFSET	 0.000000	 0.000000	 0.052305
										CHANNELS 3 Zrotation Xrotation Yrotation
										JOINT RightHandIndex3
										{
											OFFSET	 0.009002	-0.000782	 0.042196
											CHANNELS 3 Zrotation Xrotation Yrotation
											End Site
											{
												OFFSET	 0.009002	-0.000782	 0.042196
											}
										}
									}
								}
							}
						}
					}
				}
			}
		}
	}
}
MOTION
Frames:    5
Frame Time: 0.03333334
-0.000032	 0.041319	 1.225425	-0.002971	 0.007578	 0.090782	-6.309652	-13.044650	 179.332800	 0.811097	-35.147540	-2.321280	-22.171420	 82.618290	 16.339080	-2.385833	 28.452760	 0.000004	 6.208663	-14.215100	-179.377800	-0.796206	-35.427060	 2.302294	 20.273640	 81.852300	-14.629330	 2.384658	 28.388730	 0.000004	-3.001905	 2.680161	 0.173968	-0.988679	 3.782143	-0.363328	 3.008569	-4.794703	 0.654307	-91.776100	 78.527470	 179.999900	 63.568980	 44.079500	-45.876760	-8.007512	 2.720269	-6.808080	-28.538160	 2.912903	-4.254597	-2.635965	 4.993658	 6.788941	-5.165319	 0.784187	 3.516649	-5.225038	 0.466231	 0.424329	-0.000002	-3.783157	-0.089647	 2.922573	 4.906909	-0.125264	 89.782070	 78.203920	-180.000000	 9.546290	 13.209400	 84.189030	-33.618340	-4.919756	 14.829850	 3.786686	 2.421540	-6.102307	 6.112037	 4.509576	-0.364401	 4.968462	 1.518543	-9.347576	 5.168945	 0.703820	 2.021906
-0.000115	 0.042476	 1.225883	-0.003170	 0.008107	 0.065061	-6.303985	-12.980920	 179.349100	 0.819460	-34.978180	-2.306721	-21.863110	 82.524250	 16.029540	-2.385833	 28.452760	 0.000004	 6.217769	-14.220930	-179.342600	-0.801763	-35.314050	 2.292692	 19.992520	 81.738150	-14.348620	 2.384658	 28.388730	 0.000004	-2.326261	 2.673137	 0.171120	-0.634641	 3.802307	-0.292576	 1.951444	-4.839124	 0.452166	-91.776230	 78.527470	-180.000000	 63.730670	 44.138570	-46.287560	-8.031226	 2.514075	-6.289119	-28.534700	 2.913350	-4.254053	-2.635965	 4.993658	 6.788941	-5.165319	 0.784187	 3.516649	-5.225038	 0.466231	 0.424329	-0.000002	-3.783157	-0.089647	 1.894396	 4.951070	-0.081922	 89.782070	 78.203890	-180.000000	 9.574835	 13.350920	 84.214490	-33.722690	-4.941914	 14.805420	 3.792325	 2.342987	-6.146101	 6.112037	 4.509576	-0.364401	 4.968462	 1.518543	-9.347576	 5.168945	 0.703820	 2.021906
-0.000238	 0.043627	 1.226378	-0.001300	 0.011204	 0.038614	-6.300827	-12.913420	 179.363400	 0.828430	-34.794900	-2.291039	-21.550880	 82.422490	 15.716580	-2.385833	 28.452760	 0.000004	 6.225043	-14.227020	-179.306100	-0.807465	-35.197500	 2.282813	 19.716020	 81.622510	-14.072530	 2.384658	 28.388730	 0.000004	-1.614951	 2.670352	 0.119306	-0.264417	 3.805680	-0.122996	 0.828518	-4.861553	 0.192363	-91.776140	 78.527430	 180.000000	 63.939430	 44.195600	-46.834270	-8.059753	 2.239971	-5.600368	-28.536240	 2.913142	-4.254307	-2.635965	 4.993658	 6.788941	-5.165319	 0.784187	 3.516649	-5.225038	 0.466231	 0.424329	-0.000002	-3.783157	-0.089647	 0.807172	 4.977619	-0.035098	 89.782110	 78.203900	 180.000000	 9.622295	 13.514120	 84.243710	-33.835540	-4.968603	 14.787200	 3.810045	 2.245893	-6.194894	 6.112037	 4.509576	-0.364401	 4.968462	 1.518543	-9.347576	 5.168945	 0.703820	 2.021906
-0.000347	 0.044761	 1.226831	 0.000206	 0.012061	 0.006719	-6.295745	-12.848230	 179.384900	 0.836886	-34.620600	-2.276193	-21.255430	 82.325530	 15.420130	-2.385833	 28.452760	 0.000004	 6.233743	-14.233620	-179.265500	-0.812723	-35.089430	 2.273677	 19.454690	 81.511770	-13.811380	 2.384658	 28.388730	 0.000004	-0.894393	 2.671369	 0.069266	 0.112070	 3.804557	 0.054250	-0.313714	-4.863071	-0.074591	-91.776200	 78.527420	-180.000000	 64.178790	 44.240790	-47.430800	-8.085625	 1.959578	-4.896901	-28.542860	 2.912299	-4.255404	-2.635965	 4.993658	 6.788941	-5.165319	 0.784187	 3.516649	-5.225038	 0.466231	 0.424329	-0.000002	-3.783157	-0.089647	-0.298020	 4.982832	 0.012953	 89.782180	 78.203890	 179.999900	 9.673760	 13.712950	 84.275210	-33.959030	-4.996944	 14.764690	 3.850575	 2.187514	-6.237564	 6.112037	 4.509576	-0.364401	 4.968462	 1.518543	-9.347576	 5.168945	 0.703820	 2.021906
-0.000432	 0.045755	 1.227194	 0.001870	 0.010852	-0.026948	-6.290167	-12.792920	 179.410800	 0.843907	-34.474620	-2.263804	-21.008920	 82.243970	 15.172570	-2.385833	 28.452760	 0.000004	 6.242192	-14.240970	-179.225500	-0.816913	-35.002920	 2.266382	 19.236610	 81.418620	-13.593250	 2.384658	 28.388730	 0.000004	-0.267107	 2.675765	 0.028273	 0.440849	 3.799770	 0.216536	-1.313364	-4.846658	-0.311284	-91.776120	 78.527450	 179.999900	 64.412800	 44.272240	-47.981160	-8.104773	 1.721408	-4.300134	-28.553450	 2.910913	-4.257104	-2.635965	 4.993658	 6.788941	-5.165319	 0.784187	 3.516649	-5.225038	 0.466231	 0.424329	-0.000002	-3.783157	-0.089647	-1.265210	 4.969336	 0.054889	 89.782140	 78.203900	 180.000000	 9.690355	 13.839370	 84.293000	-34.066650	-5.021253	 14.744420	 3.553237	 2.277342	-6.260840	 6.112037	 4.509576	-0.364401	 4.968462	 1.518543	-9.347576	 5.168945	 0.703820	 2.021906
